<?xml version="1.0" encoding="utf-8"?>
<!-- Generator: Adobe Illustrator 19.1.1, SVG Export Plug-In . SVG Version: 6.00 Build 0)  -->
<svg version="1.1" id="Layer_1" xmlns="http://www.w3.org/2000/svg" xmlns:xlink="http://www.w3.org/1999/xlink" x="0px" y="0px"
	 viewBox="-107 400.1 40.9 42.8" style="enable-background:new -107 400.1 40.9 42.8;" xml:space="preserve">
<style type="text/css">
	.st0{fill:#D2D2D2;}
	.st1{fill:#FF4547;}
</style>
<g id="carre">
	<rect x="-190" y="405.4" class="st0" width="29.1" height="29.1"/>
</g>
<g id="triangle">
	<g>
		<polygon class="st0" points="-66.1,425.2 -76.2,415.1 -76.1,415 -86.5,404.6 -86.6,404.7 -86.7,404.6 -97,415 -96.9,415.1 
			-107,425.2 -96.7,435.5 -86.6,425.4 -76.5,435.5 		"/>
	</g>
	<g>
		<polygon class="st0" points="-66.1,425.2 -76.2,415.1 -76.1,415 -86.5,404.6 -86.6,404.7 -86.7,404.6 -97,415 -96.9,415.1 
			-107,425.2 -96.7,435.5 -86.6,425.4 -76.5,435.5 		"/>
	</g>
</g>
<g id="rectangle">
	<polygon class="st1" points="17.2,405.4 9.9,405.4 -4.5,405.4 -11.8,405.4 -19.1,405.4 -19.1,434.5 -4.5,434.5 -4.5,420.1 
		9.9,420.1 9.9,434.5 24.5,434.5 24.5,405.4 	"/>
</g>
</svg>
